<?xml version="1.0" encoding="UTF-8" standalone="no"?>
<!-- Created with Inkscape (http://www.inkscape.org/) -->

<svg
   width="100"
   height="100"
   viewBox="0 0 26.458333 26.458333"
   version="1.1"
   id="svg5"
   inkscape:version="1.2.1 (9c6d41e410, 2022-07-14, custom)"
   sodipodi:docname="logo.svg"
   inkscape:export-filename="feedshare.png"
   inkscape:export-xdpi="96"
   inkscape:export-ydpi="96"
   xmlns:inkscape="http://www.inkscape.org/namespaces/inkscape"
   xmlns:sodipodi="http://sodipodi.sourceforge.net/DTD/sodipodi-0.dtd"
   xmlns="http://www.w3.org/2000/svg"
   xmlns:svg="http://www.w3.org/2000/svg">
  <sodipodi:namedview
     id="namedview7"
     pagecolor="#505050"
     bordercolor="#eeeeee"
     borderopacity="1"
     inkscape:showpageshadow="0"
     inkscape:pageopacity="0"
     inkscape:pagecheckerboard="0"
     inkscape:deskcolor="#505050"
     inkscape:document-units="mm"
     showgrid="true"
     inkscape:zoom="3.3638608"
     inkscape:cx="196.79768"
     inkscape:cy="38.497431"
     inkscape:window-width="2560"
     inkscape:window-height="1374"
     inkscape:window-x="0"
     inkscape:window-y="32"
     inkscape:window-maximized="1"
     inkscape:current-layer="layer1">
    <inkscape:grid
       type="xygrid"
       id="grid9"
       empspacing="10"
       originx="0"
       originy="0" />
  </sodipodi:namedview>
  <defs
     id="defs2" />
  <g
     inkscape:label="Layer 1"
     inkscape:groupmode="layer"
     id="layer1">
    <path
       id="path373-36"
       style="fill:#ff6600;fill-opacity:1;stroke:none;stroke-width:4.40972;stroke-linejoin:round"
       d="M 13.229167,-3.3333333e-7 C 5.9229067,-3.3333333e-7 -3.3333334e-7,5.9229067 -3.3333334e-7,13.229167 -3.3333334e-7,20.535427 5.9229067,26.458334 13.229167,26.458334 V 23.8125 c -5.8450073,0 -10.5833333,-4.738326 -10.5833333,-10.583333 0,-5.8450073 4.738326,-10.5833333 10.5833333,-10.5833333 z" />
    <path
       id="path373-3-1-6"
       style="fill:#ff6600;fill-opacity:1;stroke:none;stroke-width:2.64583;stroke-linejoin:round"
       d="m 13.229167,5.2916667 c -4.3837563,0 -7.9375003,3.553744 -7.9375003,7.9375003 0,4.383756 3.553744,7.9375 7.9375003,7.9375 v -2.645833 c -2.922504,0 -5.2916673,-2.369165 -5.2916673,-5.291667 0,-2.922505 2.3691633,-5.2916673 5.2916673,-5.2916673 z" />
    <path
       id="path373-3-6-2-1"
       style="fill:#ff6600;fill-opacity:1;stroke:none;stroke-width:0.881946;stroke-linejoin:round"
       d="m 13.229167,13.229167 c 0,1.461253 0,2.645833 0,2.645833 -1.461253,0 -2.645833,-1.18458 -2.645833,-2.645833 0,-1.461255 1.18458,-2.645835 2.645833,-2.645835 0,0 0,1.18458 0,2.645835 z"
       sodipodi:nodetypes="scscs" />
    <path
       style="fill:#000000;fill-opacity:1;stroke:none;stroke-width:0.264583px;stroke-linecap:butt;stroke-linejoin:miter;stroke-opacity:1"
       d="M 26.458333,-3.3333333e-7 H 13.229167 V 26.458333 l 2.645833,1e-6 V 13.229167 h 7.9375 V 10.583334 H 15.875 V 2.6458337 h 10.583334 z"
       id="path115-8"
       sodipodi:nodetypes="ccccccccccc" />
  </g>
</svg>
